<svg width="40" height="39" viewBox="0 0 40 39" fill="none" xmlns="http://www.w3.org/2000/svg">
<g id="&#240;&#159;&#166;&#134; icon &#34;calendar&#34;">
<path id="Vector" d="M20 38.3336C31.0457 38.3336 40 29.7523 40 19.1668C40 8.58127 31.0457 0 20 0C8.9543 0 0 8.58127 0 19.1668C0 29.7523 8.9543 38.3336 20 38.3336Z" fill="#77B3D4"/>
<path id="Vector_2" opacity="0.2" d="M7.5 14.9741V29.9482C7.5 31.2659 8.625 32.344 10 32.344H30C31.375 32.344 32.5 31.2659 32.5 29.9482V14.9741H7.5Z" fill="#231F20"/>
<path id="Vector_3" d="M7.5 13.7761V28.7502C7.5 30.0679 8.625 31.146 10 31.146H30C31.375 31.146 32.5 30.0679 32.5 28.7502V13.7761H7.5Z" fill="white"/>
<path id="Vector_4" opacity="0.2" d="M30 8.3855H10C8.625 8.3855 7.5 9.46363 7.5 10.7813V14.9741H32.5V10.7813C32.5 9.46363 31.375 8.3855 30 8.3855Z" fill="#231F20"/>
<path id="Vector_5" d="M30 7.1875H10C8.625 7.1875 7.5 8.26563 7.5 9.58335V13.7761H32.5V9.58335C32.5 8.26563 31.375 7.1875 30 7.1875Z" fill="#C75C5C"/>
<path id="Vector_6" d="M20 28.7501C19.3125 28.7501 18.75 28.211 18.75 27.5521C18.75 24.2579 19.875 21.862 20.9375 20.3646H16.875C16.1875 20.3646 15.625 19.8255 15.625 19.1667C15.625 18.5078 16.1875 17.9688 16.875 17.9688H23.75C24.3125 17.9688 24.75 18.3281 24.9375 18.8073C25.125 19.2865 24.9375 19.8255 24.5 20.125C24.375 20.2448 21.25 22.461 21.25 27.5521C21.25 28.211 20.6875 28.7501 20 28.7501Z" fill="#4F5D73"/>
<path id="Vector_7" opacity="0.2" d="M12.5 12.5781C11.8125 12.5781 11.25 12.039 11.25 11.3802V7.18743C11.25 6.52857 11.8125 5.9895 12.5 5.9895C13.1875 5.9895 13.75 6.52857 13.75 7.18743V11.3802C13.75 12.039 13.1875 12.5781 12.5 12.5781Z" fill="#231F20"/>
<path id="Vector_8" opacity="0.2" d="M28.125 12.5781C27.4375 12.5781 26.875 12.039 26.875 11.3802V7.18743C26.875 6.52857 27.4375 5.9895 28.125 5.9895C28.8125 5.9895 29.375 6.52857 29.375 7.18743V11.3802C29.375 12.039 28.8125 12.5781 28.125 12.5781Z" fill="#231F20"/>
<g id="Group">
<path id="Vector_9" d="M12.5 11.3803C11.8125 11.3803 11.25 10.8413 11.25 10.1824V5.98967C11.25 5.33081 11.8125 4.79175 12.5 4.79175C13.1875 4.79175 13.75 5.33081 13.75 5.98967V10.1824C13.75 10.8413 13.1875 11.3803 12.5 11.3803Z" fill="#E0E0D1"/>
<path id="Vector_10" d="M28.125 11.3803C27.4375 11.3803 26.875 10.8413 26.875 10.1824V5.98967C26.875 5.33081 27.4375 4.79175 28.125 4.79175C28.8125 4.79175 29.375 5.33081 29.375 5.98967V10.1824C29.375 10.8413 28.8125 11.3803 28.125 11.3803Z" fill="#E0E0D1"/>
</g>
</g>
</svg>
