<svg width="23" height="78" viewBox="0 0 23 78" fill="none" xmlns="http://www.w3.org/2000/svg">
<g id="&#240;&#159;&#166;&#134; emoji &#34;cigarette&#34;">
<path id="Vector" d="M2.01776 73.853L3.08448 3.15486C3.09406 2.51969 3.91573 2.01224 4.9105 2.02725L18.5607 2.23321C19.5553 2.24822 20.3613 2.78022 20.3517 3.41539L19.285 74.1136C19.2754 74.7487 18.4537 75.2563 17.4592 75.2413L3.80893 75.0353C2.81416 75.0203 2.00818 74.4883 2.01776 73.853Z" fill="white"/>
<path id="Vector_2" d="M2.01787 73.8672L2.30833 54.617C2.31779 53.9896 3.12935 53.4884 4.1118 53.5032L17.8065 53.7099C18.789 53.7247 19.585 54.2502 19.5756 54.8776L19.2851 74.1277C19.2756 74.7552 18.4641 75.2564 17.4816 75.2415L3.78692 75.0349C2.80448 75.0201 2.00841 74.4946 2.01787 73.8672Z" fill="#F4AA41"/>
<path id="Vector_3" d="M2.99852 8.85223L3.08481 3.13296C3.09421 2.50977 3.90037 2.01201 4.87602 2.02673L18.595 2.23373C19.5709 2.24845 20.3614 2.7703 20.352 3.39349L20.2658 9.11276C20.2563 9.73596 19.4504 10.2337 18.4745 10.219L4.75554 10.012C3.77988 9.99727 2.98911 9.47542 2.99852 8.85223Z" fill="#9B9B9A"/>
<g id="Group">
<path id="Vector_4" d="M2.01776 73.853L3.08448 3.15486C3.09406 2.51969 3.91573 2.01224 4.9105 2.02725L18.5607 2.23321C19.5553 2.24822 20.3613 2.78022 20.3517 3.41539L19.285 74.1136C19.2754 74.7487 18.4537 75.2563 17.4592 75.2413L3.80893 75.0353C2.81416 75.0203 2.00818 74.4883 2.01776 73.853Z" stroke="black" stroke-width="3.57292" stroke-miterlimit="10" stroke-linecap="round" stroke-linejoin="round"/>
<path id="Vector_5" d="M2.01787 73.8672L2.30833 54.617C2.31779 53.9896 3.12936 53.4884 4.1118 53.5032L17.8065 53.7099C18.789 53.7247 19.585 54.2502 19.5756 54.8776L19.2851 74.1277C19.2756 74.7552 18.4641 75.2564 17.4816 75.2415L3.78692 75.0349C2.80448 75.0201 2.00841 74.4946 2.01787 73.8672Z" stroke="black" stroke-width="3.57292" stroke-miterlimit="10" stroke-linecap="round" stroke-linejoin="round"/>
<path id="Vector_6" d="M2.99852 8.85223L3.08481 3.13296C3.09421 2.50977 3.90037 2.01201 4.87602 2.02673L18.595 2.23373C19.5709 2.24845 20.3614 2.7703 20.352 3.39349L20.2658 9.11276C20.2563 9.73596 19.4504 10.2337 18.4745 10.219L4.75554 10.012C3.77988 9.99727 2.98911 9.47542 2.99852 8.85223Z" stroke="black" stroke-width="3.57292" stroke-miterlimit="10" stroke-linecap="round" stroke-linejoin="round"/>
</g>
</g>
</svg>
