<svg width="34" height="30" viewBox="0 0 34 30" fill="none" xmlns="http://www.w3.org/2000/svg">
<g id="ic:outline-lock">
<path id="Vector" d="M25.1023 10H23.7353V7.5C23.7353 4.05 20.6733 1.25 16.9005 1.25C13.1277 1.25 10.0657 4.05 10.0657 7.5V10H8.69876C7.19511 10 5.96484 11.125 5.96484 12.5V25C5.96484 26.375 7.19511 27.5 8.69876 27.5H25.1023C26.6059 27.5 27.8362 26.375 27.8362 25V12.5C27.8362 11.125 26.6059 10 25.1023 10ZM12.7996 7.5C12.7996 5.425 14.6314 3.75 16.9005 3.75C19.1697 3.75 21.0014 5.425 21.0014 7.5V10H12.7996V7.5ZM25.1023 25H8.69876V12.5H25.1023V25ZM16.9005 21.25C18.4042 21.25 19.6344 20.125 19.6344 18.75C19.6344 17.375 18.4042 16.25 16.9005 16.25C15.3969 16.25 14.1666 17.375 14.1666 18.75C14.1666 20.125 15.3969 21.25 16.9005 21.25Z" fill="#544C4C"/>
</g>
</svg>
