<svg width="34" height="30" viewBox="0 0 34 30" fill="none" xmlns="http://www.w3.org/2000/svg">
<g id="ic:outline-data-exploration" opacity="0.9">
<path id="Vector" d="M16.8073 2.5C9.26167 2.5 3.1377 8.1 3.1377 15C3.1377 21.9 9.26167 27.5 16.8073 27.5H27.743C29.2466 27.5 30.4769 26.375 30.4769 25V15C30.4769 8.1 24.3529 2.5 16.8073 2.5ZM16.8073 25C12.8568 25 9.3847 23.075 7.47096 20.2L11.5035 16.5125L16.0008 20L22.2751 14.275V16.25H25.009V10H18.1742V12.5H20.334L15.8504 16.6L11.3395 13.125L6.29537 17.75C6.02198 16.875 5.87161 15.95 5.87161 15C5.87161 9.4875 10.779 5 16.8073 5C22.8356 5 27.743 9.4875 27.743 15C27.743 20.5125 22.8356 25 16.8073 25ZM27.0595 25.625C26.3077 25.625 25.6925 25.0625 25.6925 24.375C25.6925 23.6875 26.3077 23.125 27.0595 23.125C27.8113 23.125 28.4264 23.6875 28.4264 24.375C28.4264 25.0625 27.8113 25.625 27.0595 25.625Z" fill="#544C4C"/>
</g>
</svg>
