<svg width="33" height="30" viewBox="0 0 33 30" fill="none" xmlns="http://www.w3.org/2000/svg">
<g id="ic:sharp-people-outline">
<path id="Vector" d="M12.4261 15C15.0644 15 17.2105 13.0375 17.2105 10.625C17.2105 8.2125 15.0644 6.25 12.4261 6.25C9.78791 6.25 7.64178 8.2125 7.64178 10.625C7.64178 13.0375 9.78791 15 12.4261 15ZM12.4261 8.75C13.5607 8.75 14.4766 9.5875 14.4766 10.625C14.4766 11.6625 13.5607 12.5 12.4261 12.5C11.2916 12.5 10.3757 11.6625 10.3757 10.625C10.3757 9.5875 11.2916 8.75 12.4261 8.75ZM12.4261 17.1875C9.22745 17.1875 2.85742 18.65 2.85742 21.5625V23.75H21.9949V21.5625C21.9949 18.65 15.6248 17.1875 12.4261 17.1875ZM6.05611 21.25C7.20435 20.525 9.97928 19.6875 12.4261 19.6875C14.873 19.6875 17.6479 20.525 18.7962 21.25H6.05611ZM22.0495 17.2625C23.6352 18.3125 24.7288 19.7125 24.7288 21.5625V23.75H30.1966V21.5625C30.1966 19.0375 25.4123 17.6 22.0495 17.2625ZM20.6279 15C23.2661 15 25.4122 13.0375 25.4122 10.625C25.4122 8.2125 23.2661 6.25 20.6279 6.25C19.8897 6.25 19.2063 6.4125 18.5775 6.6875C19.4386 7.8 19.9444 9.1625 19.9444 10.625C19.9444 12.0875 19.4386 13.45 18.5775 14.5625C19.2063 14.8375 19.8897 15 20.6279 15Z" fill="#544C4C"/>
</g>
</svg>
