<svg width="34" height="30" viewBox="0 0 34 30" fill="none" xmlns="http://www.w3.org/2000/svg">
<g id="iconamoon:notification">
<g id="Group">
<path id="Vector" d="M8.69876 23.75V12.5C8.69876 10.5109 9.56287 8.60322 11.101 7.1967C12.6391 5.79018 14.7253 5 16.9005 5C19.0758 5 21.1619 5.79018 22.7 7.1967C24.2382 8.60322 25.1023 10.5109 25.1023 12.5V23.75M8.69876 23.75H25.1023M8.69876 23.75H5.96484M25.1023 23.75H27.8362M15.5336 27.5H18.2675" stroke="#544C4C" stroke-width="2.66667" stroke-linecap="round" stroke-linejoin="round"/>
<path id="Vector_2" d="M16.9002 5C17.6551 5 18.2671 4.44036 18.2671 3.75C18.2671 3.05964 17.6551 2.5 16.9002 2.5C16.1452 2.5 15.5332 3.05964 15.5332 3.75C15.5332 4.44036 16.1452 5 16.9002 5Z" stroke="#544C4C" stroke-width="2.66667"/>
</g>
</g>
</svg>
