<svg width="34" height="30" viewBox="0 0 34 30" fill="none" xmlns="http://www.w3.org/2000/svg">
<g id="material-symbols:credit-card-outline">
<path id="Vector" d="M30.6644 7.5V22.5C30.6644 23.1875 30.3965 23.7763 29.8606 24.2663C29.3248 24.7563 28.6814 25.0008 27.9305 25H6.05912C5.30729 25 4.66345 24.755 4.1276 24.265C3.59175 23.775 3.32429 23.1867 3.3252 22.5V7.5C3.3252 6.8125 3.59312 6.22375 4.12897 5.73375C4.66482 5.24375 5.3082 4.99917 6.05912 5H27.9305C28.6823 5 29.3261 5.245 29.862 5.735C30.3978 6.225 30.6653 6.81334 30.6644 7.5ZM6.05912 10H27.9305V7.5H6.05912V10ZM6.05912 15V22.5H27.9305V15H6.05912Z" fill="#544C4C"/>
</g>
</svg>
