<svg width="34" height="30" viewBox="0 0 34 30" fill="none" xmlns="http://www.w3.org/2000/svg">
<g id="material-symbols:privacy-tip-outline">
<path id="Vector" d="M15.5336 21.25H18.2675V13.75H15.5336V21.25ZM16.9005 11.25C17.2878 11.25 17.6127 11.13 17.8752 10.89C18.1376 10.65 18.2684 10.3533 18.2675 10C18.2675 9.64583 18.1362 9.34875 17.8738 9.10875C17.6113 8.86875 17.2869 8.74917 16.9005 8.75C16.5132 8.75 16.1883 8.87 15.9259 9.11C15.6634 9.35 15.5326 9.64667 15.5336 10C15.5336 10.3542 15.6648 10.6513 15.9272 10.8913C16.1897 11.1313 16.5141 11.2508 16.9005 11.25ZM16.9005 27.5C13.7337 26.7708 11.1192 25.1092 9.05691 22.515C6.99462 19.9208 5.96393 17.0408 5.96484 13.875V6.25L16.9005 2.5L27.8362 6.25V13.875C27.8362 17.0417 26.805 19.9221 24.7428 22.5163C22.6805 25.1104 20.0664 26.7717 16.9005 27.5ZM16.9005 24.875C19.2699 24.1875 21.2292 22.8125 22.7784 20.75C24.3277 18.6875 25.1023 16.3958 25.1023 13.875V7.96875L16.9005 5.15625L8.69876 7.96875V13.875C8.69876 16.3958 9.47337 18.6875 11.0226 20.75C12.5718 22.8125 14.5311 24.1875 16.9005 24.875Z" fill="#544C4C"/>
</g>
</svg>
