<svg width="34" height="30" viewBox="0 0 34 30" fill="none" xmlns="http://www.w3.org/2000/svg">
<g id="mdi:question-mark-circle-outline">
<path id="Vector" d="M15.5341 22.5H18.268V20H15.5341V22.5ZM16.901 2.5C15.1059 2.5 13.3284 2.82332 11.6699 3.45151C10.0114 4.07969 8.50452 5.00043 7.23518 6.16117C4.67163 8.50537 3.23145 11.6848 3.23145 15C3.23145 18.3152 4.67163 21.4946 7.23518 23.8388C8.50452 24.9996 10.0114 25.9203 11.6699 26.5485C13.3284 27.1767 15.1059 27.5 16.901 27.5C20.5264 27.5 24.0034 26.183 26.5669 23.8388C29.1304 21.4946 30.5706 18.3152 30.5706 15C30.5706 13.3585 30.2171 11.733 29.5301 10.2165C28.8431 8.69989 27.8362 7.3219 26.5669 6.16117C25.2976 5.00043 23.7906 4.07969 22.1322 3.45151C20.4737 2.82332 18.6962 2.5 16.901 2.5ZM16.901 25C10.8727 25 5.96536 20.5125 5.96536 15C5.96536 9.4875 10.8727 5 16.901 5C22.9293 5 27.8367 9.4875 27.8367 15C27.8367 20.5125 22.9293 25 16.901 25ZM16.901 7.5C15.4509 7.5 14.0601 8.02678 13.0347 8.96447C12.0093 9.90215 11.4332 11.1739 11.4332 12.5H14.1671C14.1671 11.837 14.4552 11.2011 14.9679 10.7322C15.4806 10.2634 16.176 10 16.901 10C17.6261 10 18.3215 10.2634 18.8342 10.7322C19.3469 11.2011 19.635 11.837 19.635 12.5C19.635 15 15.5341 14.6875 15.5341 18.75H18.268C18.268 15.9375 22.3689 15.625 22.3689 12.5C22.3689 11.1739 21.7928 9.90215 20.7674 8.96447C19.742 8.02678 18.3512 7.5 16.901 7.5Z" fill="#544C4C"/>
</g>
</svg>
