<svg width="34" height="30" viewBox="0 0 34 30" fill="none" xmlns="http://www.w3.org/2000/svg">
<g id="ri:delete-bin-5-line" opacity="0.9">
<path id="Vector" d="M5.87161 10H27.743V26.25C27.743 26.5815 27.5989 26.8995 27.3426 27.1339C27.0862 27.3683 26.7385 27.5 26.376 27.5H7.23857C6.87603 27.5 6.52834 27.3683 6.27199 27.1339C6.01563 26.8995 5.87161 26.5815 5.87161 26.25V10ZM8.60553 12.5V25H25.009V12.5H8.60553ZM12.7064 15H15.4403V22.5H12.7064V15ZM18.1742 15H20.9082V22.5H18.1742V15ZM9.97249 6.25V3.75C9.97249 3.41848 10.1165 3.10054 10.3729 2.86612C10.6292 2.6317 10.9769 2.5 11.3395 2.5H22.2751C22.6377 2.5 22.9854 2.6317 23.2417 2.86612C23.4981 3.10054 23.6421 3.41848 23.6421 3.75V6.25H30.4769V8.75H3.1377V6.25H9.97249ZM12.7064 5V6.25H20.9082V5H12.7064Z" fill="#544C4C"/>
</g>
</svg>
