<svg width="34" height="30" viewBox="0 0 34 30" fill="none" xmlns="http://www.w3.org/2000/svg">
<g id="tabler:circle-letter-i">
<path id="Vector" d="M16.9003 10V20M4.59766 15C4.59766 16.4774 4.91587 17.9403 5.53414 19.3052C6.1524 20.6701 7.05861 21.9103 8.20101 22.955C9.34342 23.9996 10.6997 24.8283 12.1923 25.3936C13.6849 25.959 15.2847 26.25 16.9003 26.25C18.5159 26.25 20.1157 25.959 21.6083 25.3936C23.1009 24.8283 24.4572 23.9996 25.5996 22.955C26.742 21.9103 27.6482 20.6701 28.2664 19.3052C28.8847 17.9403 29.2029 16.4774 29.2029 15C29.2029 13.5226 28.8847 12.0597 28.2664 10.6948C27.6482 9.3299 26.742 8.08971 25.5996 7.04505C24.4572 6.00039 23.1009 5.17172 21.6083 4.60636C20.1157 4.04099 18.5159 3.75 16.9003 3.75C15.2847 3.75 13.6849 4.04099 12.1923 4.60636C10.6997 5.17172 9.34342 6.00039 8.20101 7.04505C7.05861 8.08971 6.1524 9.3299 5.53414 10.6948C4.91587 12.0597 4.59766 13.5226 4.59766 15Z" stroke="#544C4C" stroke-width="2.66667" stroke-linecap="round" stroke-linejoin="round"/>
</g>
</svg>
